<svg xmlns="http://www.w3.org/2000/svg" width="109.625" height="17.281" viewBox="0 0 109.625 17.281">
<defs>
    <style>
      .cls-1 {
        fill: #fff;
        fill-rule: evenodd;
      }
    </style>
  </defs>
  <path id="ТЕХНОМАРТ" class="cls-1" d="M185.421,15.227h3.84v15.12h2.16V15.227h3.84v-1.68h-9.84v1.68Zm14.035,7.2h5.28v-1.68h-5.28v-5.52h6v-1.68H197.3v16.8h8.16v-1.68h-6v-6.24Zm12.917-2.16-2.64-6.72h-2.16l3.24,8.16-3.6,8.64h2.16l3-7.2,3,7.2h2.16l-3.6-8.64,3.24-8.16h-2.16Zm14.455-6.72v7.44h-5.04v-7.44h-2.16v16.8h2.16v-7.68h5.04v7.68h2.16v-16.8h-2.16Zm7.788,0.168A3.772,3.772,0,0,0,233,15.107a7.377,7.377,0,0,0-1.02,2.652,21.01,21.01,0,0,0-.348,4.188,21.008,21.008,0,0,0,.348,4.188A7.372,7.372,0,0,0,233,28.787a3.768,3.768,0,0,0,1.62,1.392,5.985,5.985,0,0,0,4.344,0,3.768,3.768,0,0,0,1.62-1.392,7.372,7.372,0,0,0,1.02-2.652,21.008,21.008,0,0,0,.348-4.188,21.01,21.01,0,0,0-.348-4.188,7.377,7.377,0,0,0-1.02-2.652,3.772,3.772,0,0,0-1.62-1.392A5.985,5.985,0,0,0,234.616,13.715Zm1.044,15.12a2.544,2.544,0,0,1-.96-1.128,8.38,8.38,0,0,1-.66-2.208,20.547,20.547,0,0,1-.252-3.552,20.549,20.549,0,0,1,.252-3.552,8.387,8.387,0,0,1,.66-2.208,2.547,2.547,0,0,1,.96-1.128,2.2,2.2,0,0,1,2.256,0,2.547,2.547,0,0,1,.96,1.128,8.387,8.387,0,0,1,.66,2.208,20.549,20.549,0,0,1,.252,3.552,20.547,20.547,0,0,1-.252,3.552,8.38,8.38,0,0,1-.66,2.208,2.544,2.544,0,0,1-.96,1.128A2.2,2.2,0,0,1,235.66,28.835Zm17.119-.648,3.48-10.32h0.12l0.72,12.48h2.16l-0.96-16.8h-2.64l-3.912,11.52h-0.1l-3.912-11.52H245.1l-0.96,16.8h2.16l0.72-12.48h0.12l3.48,10.32h2.16Zm16.509-2.16,1.08,4.32h2.16l-4.08-16.8h-3.12l-4.08,16.8h2.16l1.08-4.32h4.8Zm-0.36-1.68h-4.08l1.992-8.4h0.1Zm7.9-.6v-8.88h1.68a4.3,4.3,0,0,1,1.4.2,2.04,2.04,0,0,1,.972.708,3.376,3.376,0,0,1,.564,1.368,10.84,10.84,0,0,1,.18,2.16,10.84,10.84,0,0,1-.18,2.16,3.376,3.376,0,0,1-.564,1.368,2.038,2.038,0,0,1-.972.708,4.3,4.3,0,0,1-1.4.2h-1.68Zm0,1.44a11.468,11.468,0,0,0,1.152.168,12.253,12.253,0,0,0,1.248.072,6.116,6.116,0,0,0,2.028-.3,3.086,3.086,0,0,0,1.416-1.008,4.719,4.719,0,0,0,.84-1.884,13.077,13.077,0,0,0,.276-2.928,11.994,11.994,0,0,0-.288-2.856,4.268,4.268,0,0,0-.912-1.848,3.463,3.463,0,0,0-1.632-1,8.675,8.675,0,0,0-2.448-.3,17.315,17.315,0,0,0-2,.108,11.33,11.33,0,0,0-1.836.372v16.56h2.16v-5.16Zm8.373-9.96h3.84v15.12h2.16V15.227h3.84v-1.68H285.2v1.68Z" transform="translate(-185.406 -13.313)"/>
</svg>
